name ./resultDataOpenSim/trcMotMarkerGrf/sub06/grf-03-07.mot
datacolumns 19
datarows 12
range 1.46400000 1.50800000
endheader

                time	     ground_force_vx	     ground_force_vy	     ground_force_vz	     ground_force_px	     ground_force_py	     ground_force_pz	   l_ground_force_vx	   l_ground_force_vy	   l_ground_force_vz	   l_ground_force_px	   l_ground_force_py	   l_ground_force_pz	     ground_torque_x	     ground_torque_y	     ground_torque_z	   l_ground_torque_x	   l_ground_torque_y	   l_ground_torque_z	
          1.46400000	         54.09015571	        445.48043959	        -10.99699371	          0.94615076	          0.00000000	          0.11535777	          0.00000000	          0.00000000	          0.00000000	          0.00000000	          0.00000000	          0.00000000	          0.00000000	          2.53463387	          0.00000000	          0.00000000	          0.00000000	          0.00000000	
          1.46800000	         57.38621788	        462.94439470	        -12.45146604	          0.94658554	          0.00000000	          0.11498843	          0.00000000	          0.00000000	          0.00000000	          0.00000000	          0.00000000	          0.00000000	          0.00000000	          2.69340453	          0.00000000	          0.00000000	          0.00000000	          0.00000000	
          1.47200000	         60.62816372	        481.10424833	        -13.72010711	          0.94705392	          0.00000000	          0.11460277	          0.00000000	          0.00000000	          0.00000000	          0.00000000	          0.00000000	          0.00000000	          0.00000000	          2.86416211	          0.00000000	          0.00000000	          0.00000000	          0.00000000	
          1.47600000	         63.94207192	        499.79658661	        -14.64069203	          0.94752030	          0.00000000	          0.11419734	          0.00000000	          0.00000000	          0.00000000	          0.00000000	          0.00000000	          0.00000000	          0.00000000	          3.04269778	          0.00000000	          0.00000000	          0.00000000	          0.00000000	
          1.48000000	         67.49817907	        518.81882154	        -15.11672497	          0.94794994	          0.00000000	          0.11377298	          0.00000000	          0.00000000	          0.00000000	          0.00000000	          0.00000000	          0.00000000	          0.00000000	          3.22277686	          0.00000000	          0.00000000	          0.00000000	          0.00000000	
          1.48400000	         71.47487680	        537.97151548	        -15.13158427	          0.94833611	          0.00000000	          0.11333622	          0.00000000	          0.00000000	          0.00000000	          0.00000000	          0.00000000	          0.00000000	          0.00000000	          3.39750284	          0.00000000	          0.00000000	          0.00000000	          0.00000000	
          1.48800000	         76.02292811	        557.09520899	        -14.75199393	          0.94867152	          0.00000000	          0.11290303	          0.00000000	          0.00000000	          0.00000000	          0.00000000	          0.00000000	          0.00000000	          0.00000000	          3.56048253	          0.00000000	          0.00000000	          0.00000000	          0.00000000	
          1.49200000	         81.23536253	        576.08120100	        -14.11827028	          0.94895033	          0.00000000	          0.11249306	          0.00000000	          0.00000000	          0.00000000	          0.00000000	          0.00000000	          0.00000000	          0.00000000	          3.70659858	          0.00000000	          0.00000000	          0.00000000	          0.00000000	
          1.49600000	         87.13159557	        594.86680978	        -13.42039795	          0.94917761	          0.00000000	          0.11212350	          0.00000000	          0.00000000	          0.00000000	          0.00000000	          0.00000000	          0.00000000	          0.00000000	          3.83246430	          0.00000000	          0.00000000	          0.00000000	          0.00000000	
          1.50000000	         93.66134448	        613.42651795	        -12.86410253	          0.94935080	          0.00000000	          0.11179821	          0.00000000	          0.00000000	          0.00000000	          0.00000000	          0.00000000	          0.00000000	          0.00000000	          3.93673515	          0.00000000	          0.00000000	          0.00000000	          0.00000000	
          1.50400000	        100.72058381	        631.74825421	        -12.63200995	          0.94948055	          0.00000000	          0.11151979	          0.00000000	          0.00000000	          0.00000000	          0.00000000	          0.00000000	          0.00000000	          0.00000000	          4.02036971	          0.00000000	          0.00000000	          0.00000000	          0.00000000	
          1.50800000	        108.17037428	        649.80393620	        -12.84758399	          0.94958191	          0.00000000	          0.11128601	          0.00000000	          0.00000000	          0.00000000	          0.00000000	          0.00000000	          0.00000000	          0.00000000	          4.08675788	          0.00000000	          0.00000000	          0.00000000	          0.00000000	
